<?xml version="1.0" encoding="utf-8"?>
<!-- Generator: Adobe Illustrator 22.0.1, SVG Export Plug-In . SVG Version: 6.00 Build 0)  -->
<svg version="1.1" id="Layer_1" xmlns="http://www.w3.org/2000/svg" xmlns:xlink="http://www.w3.org/1999/xlink" x="0px" y="0px"
	 viewBox="0 0 360 360" style="enable-background:new 0 0 360 360;" xml:space="preserve">
<style type="text/css">
	.st0{fill:#387DB6;}
</style>
<path class="st0" d="M289.4,210.9v78.4c0,7.3-5.9,13.1-13.1,13.1h-63.5c-3.6,0-6.6-3-6.6-6.6v-61.3c0-3.6-3-6.6-6.6-6.6h-39.4
	c-3.6,0-6.6,3-6.6,6.6v61.3c0,3.6-3,6.6-6.6,6.6H83.7c-7.3,0-13.1-5.9-13.1-13.1v-78.4c0-2,0.9-3.8,2.4-5.1l102.8-84.7
	c2.4-2,5.9-2,8.4,0L287,205.8C288.5,207.1,289.4,209,289.4,210.9L289.4,210.9z M335.1,177.6l-45.7-37.7V64.2c0-3.6-3-6.6-6.6-6.6
	h-30.6c-3.6,0-6.6,3-6.6,6.6v39.7l-49-40.3c-9.7-8-23.7-8-33.4,0L24.8,177.6c-2.8,2.3-3.2,6.5-0.9,9.2l13.9,17
	c2.3,2.8,6.5,3.2,9.2,0.9l128.7-106c2.4-2,5.9-2,8.4,0l128.7,106c2.8,2.3,6.9,1.9,9.2-0.9l13.9-17
	C338.3,184,337.9,179.9,335.1,177.6z"/>
</svg>
