<?xml version="1.0" encoding="utf-8"?>
<!-- Generator: Adobe Illustrator 22.0.1, SVG Export Plug-In . SVG Version: 6.00 Build 0)  -->
<svg version="1.1" xmlns="http://www.w3.org/2000/svg" xmlns:xlink="http://www.w3.org/1999/xlink" x="0px" y="0px"
	 viewBox="0 0 360 360" style="enable-background:new 0 0 360 360;" xml:space="preserve">
<style type="text/css">
	.st0{display:none;}
	.st1{display:inline;fill:#387DB6;}
	.st2{fill:#387DB6;}
</style>
<g id="Layer_1" class="st0">
	<path class="st1" d="M289.4,210.9v78.4c0,7.3-5.9,13.1-13.1,13.1h-63.5c-3.6,0-6.6-3-6.6-6.6v-61.3c0-3.6-3-6.6-6.6-6.6h-39.4
		c-3.6,0-6.6,3-6.6,6.6v61.3c0,3.6-3,6.6-6.6,6.6H83.7c-7.3,0-13.1-5.9-13.1-13.1v-78.4c0-2,0.9-3.8,2.4-5.1l102.8-84.7
		c2.4-2,5.9-2,8.4,0L287,205.8C288.5,207.1,289.4,209,289.4,210.9L289.4,210.9z M335.1,177.6l-45.7-37.7V64.2c0-3.6-3-6.6-6.6-6.6
		h-30.6c-3.6,0-6.6,3-6.6,6.6v39.7l-49-40.3c-9.7-8-23.7-8-33.4,0L24.8,177.6c-2.8,2.3-3.2,6.5-0.9,9.2l13.9,17
		c2.3,2.8,6.5,3.2,9.2,0.9l128.7-106c2.4-2,5.9-2,8.4,0l128.7,106c2.8,2.3,6.9,1.9,9.2-0.9l13.9-17
		C338.3,184,337.9,179.9,335.1,177.6z"/>
</g>
<g id="Layer_2" class="st0">
	<path class="st1" d="M336.5,126.6h-35.1l-5-13.4c-5.9-15.7-16.3-29-30-38.5c-13.8-9.5-29.9-14.6-46.6-14.6h-78.6
		c-16.7,0-32.9,5-46.6,14.6c-13.8,9.5-24.1,22.9-30,38.5l-5,13.4H24.3c-5.2,0-8.9,5.1-7.3,10.1l5.1,15.4c1,3.1,4,5.2,7.3,5.2h18.4
		l0,0.1c-12.5,7-21,20.4-21,35.7v30.7c0,10.4,3.9,19.8,10.2,27.1v39.5c0,8.5,6.9,15.4,15.4,15.4h30.7c8.5,0,15.4-6.9,15.4-15.4
		v-25.6h163.8v25.6c0,8.5,6.9,15.4,15.4,15.4h30.7c8.5,0,15.4-6.9,15.4-15.4v-39.5c6.4-7.2,10.2-16.7,10.2-27.1v-30.7
		c0-15.4-8.5-28.7-21-35.7l0-0.1h18.4c3.3,0,6.2-2.1,7.3-5.2l5.1-15.4C345.4,131.7,341.7,126.6,336.5,126.6z M102.7,127.6
		c6-15.9,21.4-26.6,38.3-26.6h78.6c17,0,32.4,10.7,38.3,26.6l9.2,24.6H93.5L102.7,127.6z M72.9,228.9c-11.3,0-20.5-9.2-20.5-20.5
		S61.6,188,72.9,188s30.7,19.4,30.7,30.7C103.6,230,84.2,228.9,72.9,228.9z M287.9,228.9c-11.3,0-30.7,1.1-30.7-10.2
		c0-11.3,19.4-30.7,30.7-30.7c11.3,0,20.5,9.2,20.5,20.5S299.2,228.9,287.9,228.9z"/>
</g>
<g id="Layer_3" class="st0">
	<path class="st1" d="M343.3,159.3l-148.1,45.7c-9.5,2.8-19.6,2.8-29.1,0L58.5,171.7c-4.6,6.1-5.9,12.4-6.4,20.6
		c5,3,8.3,8.5,8.3,14.7c0,6.4-3.5,12-8.7,15l8.7,66.1c0.3,2.6-1.7,4.9-4.3,4.9H30.3c-2.6,0-4.6-2.3-4.3-4.9l8.7-66.1
		c-5.2-2.9-8.7-8.5-8.7-15c0-6.5,3.6-12.1,8.8-15c0.5-9.6,2.1-17.8,6.5-25.6L18,159.3c-12.3-3.7-12.2-21.1,0-24.7l148.1-45.7
		c9.5-2.8,19.6-2.8,29.1,0l148.1,45.7C355.5,138.2,355.5,155.6,343.3,159.3L343.3,159.3z M200.3,221.4l-0.1,0l-0.1,0
		c-12.6,3.7-26.1,3.7-38.7,0l-0.1,0l-0.1,0l-81-25l-6.8,45c0,19,48.1,34.4,107.4,34.4S288,260.4,288,241.4l-6.8-45L200.3,221.4z"/>
</g>
<g id="Layer_4" class="st0">
	<path class="st1" d="M220.6,207.3h118.8v89.1c0,16.4-13.3,29.7-29.7,29.7H52.3c-16.4,0-29.7-13.3-29.7-29.7v-89.1h118.8v12.4
		c0,4.1,3.3,7.4,7.4,7.4h64.3c4.1,0,7.4-3.3,7.4-7.4V207.3z M339.3,138v49.5H22.7V138c0-16.4,13.3-29.7,29.7-29.7h49.5V78.6
		c0-16.4,13.3-29.7,29.7-29.7h99c16.4,0,29.7,13.3,29.7,29.7v29.7h49.5C326.1,108.3,339.3,121.6,339.3,138z M220.6,88.5h-79.2v19.8
		h79.2V88.5z"/>
</g>
<g id="Layer_5">
	<path class="st2" d="M181,29.3c53.4,0,96.7,43.3,96.7,96.7s-43.3,96.7-96.7,96.7S84.3,179.4,84.3,126S127.6,29.3,181,29.3z
		 M291.8,231.1l-43.1-10.8c-45.3,32.6-100.1,25.3-135.3,0l-43.1,10.8c-25.8,6.5-43.9,29.7-43.9,56.3v22.4c0,16,13,29,29,29h251.4
		c16,0,29-13,29-29v-22.4C335.7,260.7,317.6,237.5,291.8,231.1L291.8,231.1z"/>
</g>
</svg>
