<?xml version="1.0" encoding="utf-8"?>
<!-- Generator: Adobe Illustrator 22.1.0, SVG Export Plug-In . SVG Version: 6.00 Build 0)  -->
<svg version="1.1" id="Layer_1" xmlns="http://www.w3.org/2000/svg" xmlns:xlink="http://www.w3.org/1999/xlink" x="0px" y="0px"
	 viewBox="0 0 512 512" style="enable-background:new 0 0 512 512;" xml:space="preserve">
<style type="text/css">
	.st0{fill:#FFFFFF;}
	.st1{fill:none;stroke:#000000;stroke-width:1.0429;stroke-miterlimit:10;}
</style>
<g>
	<rect x="0.5" y="0.5" class="st0" width="511" height="511"/>
	<path d="M511,1V511H1V1H511 M512,0H0v512h512V0L512,0z"/>
</g>
<g>
	<line class="st1" x1="0.5" y1="512.5" x2="512.5" y2="0.5"/>
</g>
<g>
	<path d="M97.5,323.8l17.9-19l3.8,3.6l-13.6,14.4l11.7,11.1l12.6-13.3l3.8,3.6l-12.6,13.3l16,15.1l-4.3,4.6L97.5,323.8z"/>
	<path d="M127.9,297.4c1.6,1.4,1.8,3.8,0.1,5.6c-1.5,1.6-3.9,1.6-5.4,0.1c-1.6-1.5-1.7-3.9-0.2-5.6
		C123.9,295.8,126.2,295.8,127.9,297.4z M155.5,333.2l-25.3-23.9l4.4-4.6l25.3,23.9L155.5,333.2z"/>
	<path d="M129.9,285.8l4.4-4.6l37.2,35.1l-4.4,4.6L129.9,285.8z"/>
	<path d="M141.5,273.5l4.4-4.6l37.2,35.1l-4.4,4.6L141.5,273.5z"/>
	<path d="M181,282.5c6.3,5.8,12.7,4.2,17-0.4c3.1-3.3,4.4-5.8,5.3-8.3l4,2.3c-0.8,2.3-2.6,5.9-6.4,9.9c-7.4,7.8-16.9,7.6-24.5,0.4
		c-7.6-7.2-9.4-17.4-2.4-24.8c7.8-8.3,17.2-3.6,21.8,0.8c0.9,0.9,1.6,1.7,2,2.2L181,282.5z M190.4,265.9c-2.9-2.8-8.6-5.9-13.5-0.7
		c-4.4,4.7-2,10.8,0.8,14.1L190.4,265.9z"/>
	<path d="M197.7,253.5c-3-2.8-5.6-5.2-8.1-7.3l3.8-4l5.1,4.5l0.2-0.2c-2.3-4.4-1.8-9.2,1.1-12.3c0.5-0.5,0.9-0.8,1.4-1.2l4.3,4.1
		c-0.5,0.4-1,0.8-1.6,1.4c-3.1,3.2-2.8,7.9,0.1,11.8c0.5,0.7,1.2,1.5,1.9,2.2l13.5,12.8l-4.3,4.6L197.7,253.5z"/>
	<path d="M214.2,206c1.6,1.4,1.8,3.8,0.1,5.6c-1.5,1.6-3.9,1.6-5.4,0.1c-1.6-1.5-1.7-3.9-0.2-5.6C210.3,204.4,212.6,204.5,214.2,206
		z M241.8,241.8l-25.3-23.9l4.4-4.6l25.3,23.9L241.8,241.8z"/>
	<path d="M234.9,212.1c-2.6-2.5-4.8-4.4-7.1-6.3l3.8-4l4.3,3.6l0.1-0.2c-1.1-3.7-1.1-8.2,2.9-12.4c3.3-3.5,7.8-4.1,11.9-2.4l0.1-0.1
		c-0.7-2.1-0.8-4.2-0.6-5.9c0.3-2.6,1.2-4.9,3.5-7.3c3.2-3.3,10.1-6.2,18.9,2.1l14.9,14.1l-4.3,4.5l-14.3-13.5
		c-4.9-4.6-9.5-5.6-13-1.9c-2.5,2.6-2.5,6.5-1,9.4c0.4,0.8,1.1,1.8,2,2.5l15.7,14.8l-4.3,4.5l-15.2-14.3c-4-3.8-8.6-4.8-12-1.3
		c-2.7,2.9-2.4,7.1-0.8,10.1c0.4,0.9,1.1,1.8,1.9,2.5l15.3,14.4l-4.3,4.5L234.9,212.1z"/>
	<path d="M307.8,171.9l-3.5-2.7l-0.1,0.2c0.7,3.3-0.1,7.7-3.5,11.3c-4.8,5.1-10.9,4.3-14.6,0.9c-6.1-5.8-4.3-14.4,5-24.1l-0.5-0.5
		c-2.1-2-6.4-5-11.3,0.2c-2.2,2.4-3.8,5.5-4.3,8.4l-4-1.8c0.6-3.4,2.6-7.3,5.6-10.4c7.3-7.7,14.4-4.6,19.5,0.2l9.5,9
		c2.2,2.1,4.4,4,6.5,5.3L307.8,171.9z M294.3,160.3c-4.9,4.9-9.4,11.5-4.4,16.1c3,2.8,6.3,2.2,8.5-0.2c3.1-3.3,3-7.4,1.5-10.1
		c-0.3-0.6-0.7-1.2-1.2-1.6L294.3,160.3z"/>
	<path d="M313.7,114.9c1.7,1.8,3.7,3.9,6.8,6.8l14.7,13.9c5.8,5.5,8.3,10,8.2,14.5c0,4.6-2.7,8.9-5.7,12.1c-2.9,3-6.8,5.7-10.1,6.4
		l-2.4-4.5c2.6-0.7,6-2.4,9-5.6c4.5-4.7,5.3-10.5-1.1-16.5l-2.8-2.7l-0.1,0.1c1,3.6,0.3,8.1-3.4,12.1c-5.9,6.3-15.5,5.7-22.5-0.9
		c-8.6-8.1-8.2-18.3-2.7-24.1c4.2-4.4,8.7-4.6,11.9-3.8l0.1-0.1l-3.6-3.8L313.7,114.9z M319.2,129.1c-0.8-0.7-1.5-1.3-2.3-1.7
		c-3.5-1.7-7.8-1.5-10.9,1.8c-4.2,4.4-3.4,11,2.5,16.6c5,4.7,11.5,6.1,16.2,1.1c2.7-2.8,3.3-7.1,1.3-10.8c-0.5-1-1.3-1.9-2.1-2.7
		L319.2,129.1z"/>
	<path d="M336.7,117.7c6.3,5.8,12.7,4.2,17-0.4c3.1-3.3,4.4-5.8,5.3-8.3l4,2.3c-0.8,2.3-2.6,5.9-6.4,9.9c-7.4,7.8-16.9,7.6-24.5,0.4
		c-7.6-7.2-9.4-17.4-2.4-24.8c7.8-8.3,17.2-3.6,21.8,0.8c0.9,0.9,1.6,1.7,2,2.2L336.7,117.7z M346.1,101c-2.9-2.8-8.6-5.9-13.5-0.7
		c-4.4,4.7-2,10.8,0.8,14.1L346.1,101z"/>
	<path d="M190.8,370.9c1.7,1.8,3.7,3.9,6.8,6.8l14.7,13.9c5.8,5.5,8.3,10,8.2,14.5c0,4.6-2.7,8.9-5.7,12.1c-2.9,3-6.8,5.7-10.1,6.4
		l-2.4-4.5c2.6-0.7,6-2.4,9-5.6c4.5-4.7,5.3-10.5-1.1-16.5l-2.8-2.7l-0.1,0.1c1,3.6,0.3,8.1-3.4,12.1c-5.9,6.3-15.5,5.7-22.5-0.9
		c-8.6-8.1-8.2-18.3-2.7-24.1c4.2-4.4,8.7-4.6,11.9-3.8l0.1-0.1l-3.6-3.8L190.8,370.9z M196.3,385.1c-0.8-0.7-1.5-1.3-2.3-1.7
		c-3.5-1.7-7.8-1.5-10.9,1.8c-4.2,4.4-3.4,11,2.5,16.6c5,4.7,11.5,6.1,16.2,1.1c2.7-2.8,3.3-7.1,1.3-10.8c-0.5-1-1.3-1.9-2.1-2.7
		L196.3,385.1z"/>
	<path d="M231.9,352.3c9.4,8.9,7.3,19.2,1.5,25.3c-6.5,6.9-16.5,7.4-24.5-0.2c-8.5-8-8.2-18.3-1.6-25.3
		C214.2,344.9,224.1,345,231.9,352.3z M213.2,372.6c5.5,5.2,12.8,6,17,1.5c4.2-4.4,3.1-11.6-2.6-17c-4.3-4.1-11.8-7.1-16.9-1.6
		C205.6,361,208.4,368.1,213.2,372.6z"/>
	<path d="M240.8,344.9c6.3,5.8,12.7,4.2,17-0.4c3.1-3.3,4.4-5.8,5.3-8.2l4,2.3c-0.8,2.3-2.6,5.9-6.4,9.9c-7.4,7.8-16.9,7.6-24.5,0.4
		c-7.6-7.2-9.4-17.4-2.4-24.8c7.8-8.3,17.2-3.6,21.8,0.8c0.9,0.9,1.6,1.7,2,2.2L240.8,344.9z M250.3,328.3
		c-2.9-2.8-8.6-5.9-13.5-0.7c-4.4,4.7-2,10.8,0.8,14.1L250.3,328.3z"/>
	<path d="M269.7,328.6c2.2-0.5,5.4-2,7.6-4.3c3.2-3.3,3-6.5,0.9-8.5c-2.2-2.1-4.6-1.9-9.1,0.3c-5.9,3-10.5,2.8-13.5-0.1
		c-4.1-3.9-4.3-10.3,0.8-15.8c2.4-2.6,5.3-4.1,7.5-4.7l2.3,4.3c-1.6,0.4-4.1,1.4-6.4,3.8c-2.6,2.7-2.4,5.7-0.6,7.5
		c2.1,2,4.5,1.4,8.8-0.8c5.8-2.8,10.2-3,13.9,0.6c4.4,4.2,4.3,10.6-1.4,16.6c-2.6,2.8-5.7,4.7-8.5,5.5L269.7,328.6z"/>
	<path d="M267.9,265.5l4.4-4.6l15.8,14.9l0.1-0.1c-0.6-2-0.7-4.2-0.1-6.4c0.5-2.1,1.5-4.2,3.1-5.9c3.2-3.4,10.5-6.9,19.2,1.4
		l15.1,14.2l-4.4,4.6l-14.6-13.7c-4.1-3.9-9-5.6-13.1-1.3c-2.8,3-2.9,7.3-1.2,10.5c0.4,0.9,1,1.6,1.9,2.4l15.3,14.4l-4.4,4.6
		L267.9,265.5z"/>
	<path d="M323.1,257.8c6.3,5.8,12.7,4.2,17-0.4c3.1-3.3,4.4-5.8,5.3-8.2l4,2.3c-0.8,2.3-2.6,5.9-6.4,9.9c-7.4,7.8-16.9,7.6-24.5,0.4
		c-7.6-7.2-9.4-17.4-2.4-24.8c7.8-8.3,17.2-3.6,21.8,0.8c0.9,0.9,1.6,1.7,2,2.2L323.1,257.8z M332.6,241.2
		c-2.9-2.8-8.6-5.9-13.5-0.7c-4.4,4.7-2,10.8,0.8,14.1L332.6,241.2z"/>
	<path d="M339.9,228.9c-3-2.8-5.6-5.2-8.1-7.3l3.8-4l5.1,4.5l0.2-0.2c-2.3-4.4-1.8-9.2,1.1-12.3c0.5-0.5,0.9-0.8,1.4-1.2l4.3,4.1
		c-0.5,0.4-1,0.8-1.6,1.4c-3.1,3.2-2.8,7.9,0.1,11.8c0.5,0.7,1.2,1.5,1.9,2.2l13.5,12.8l-4.3,4.6L339.9,228.9z"/>
	<path d="M363.6,215c6.3,5.8,12.7,4.2,17-0.4c3.1-3.3,4.4-5.8,5.3-8.3l4,2.3c-0.8,2.3-2.6,5.9-6.4,9.9c-7.4,7.8-16.9,7.6-24.5,0.4
		c-7.6-7.2-9.4-17.4-2.4-24.8c7.8-8.3,17.2-3.6,21.8,0.8c0.9,0.9,1.6,1.7,2,2.2L363.6,215z M373,198.4c-2.9-2.8-8.6-5.9-13.5-0.7
		c-4.4,4.7-2,10.8,0.8,14.1L373,198.4z"/>
	<path d="M394.2,200.9c-1.9-1.8-2-4.4-0.3-6.2c1.8-1.9,4.3-1.8,6.2,0c1.8,1.7,2.1,4.3,0.3,6.2C398.7,202.7,396.1,202.6,394.2,200.9z
		 M388,192.5l-25.8-23l4.7-5l24.4,24.5L388,192.5z"/>
</g>
</svg>
