<svg id="Layer_1" data-name="Layer 1" xmlns="http://www.w3.org/2000/svg" viewBox="0 0 500 500"><defs><style>.cls-1{fill:#377cb5;}.cls-2{fill:#ff7041;}</style></defs><title>logo-icon</title><path class="cls-1" d="M147.48,194.59a94.55,94.55,0,0,1-83.77-50.67H63V444.58H163.25V193.26A95.25,95.25,0,0,1,147.48,194.59Z"/><path class="cls-1" d="M265.35,256.86a94.32,94.32,0,0,1-67.63-28.48h-.11v216.2H297.83V251.13A94.49,94.49,0,0,1,265.35,256.86Z"/><path class="cls-1" d="M416.57,333.57a94.48,94.48,0,0,1-78.65-42.05V444.58H438.14V331.07A94.66,94.66,0,0,1,416.57,333.57Z"/><circle class="cls-2" cx="115.42" cy="94.99" r="34.55"/><circle class="cls-2" cx="253.27" cy="178.47" r="34.55"/><circle class="cls-2" cx="394.6" cy="262.92" r="34.55"/><rect class="cls-2" x="249.38" y="16.06" width="11.26" height="325.8" transform="translate(-29.78 305.24) rotate(-58.97)"/><path class="cls-2" d="M392,268.91,111.35,100.11,118,89,398.67,257.81ZM113.68,99.52,391.41,266.58l4.93-8.19L118.61,91.33Z"/></svg>