<?xml version="1.0" encoding="utf-8"?>
<!-- Generator: Adobe Illustrator 22.0.1, SVG Export Plug-In . SVG Version: 6.00 Build 0)  -->
<svg version="1.1" id="Layer_1" xmlns="http://www.w3.org/2000/svg" xmlns:xlink="http://www.w3.org/1999/xlink" x="0px" y="0px"
	 viewBox="0 0 360 360" style="enable-background:new 0 0 360 360;" xml:space="preserve">
<style type="text/css">
	.st0{fill:#F37045;}
	.st1{fill:#387DB6;}
</style>
<g>
	<g>
		<g>
			<circle class="st0" cx="60.7" cy="35.5" r="29.6"/>
			<path class="st0" d="M60.7,65.8c-16.7,0-30.3-13.6-30.3-30.3S44,5.2,60.7,5.2S91,18.8,91,35.5S77.4,65.8,60.7,65.8z M60.7,6.7
				c-15.9,0-28.9,12.9-28.9,28.9c0,15.9,12.9,28.9,28.9,28.9s28.9-12.9,28.9-28.9C89.5,19.6,76.6,6.7,60.7,6.7z"/>
		</g>
		<g>
			<circle class="st0" cx="178.7" cy="107" r="29.6"/>
			<path class="st0" d="M178.7,137.3c-16.7,0-30.3-13.6-30.3-30.3s13.6-30.3,30.3-30.3S209,90.3,209,107S195.4,137.3,178.7,137.3z
				 M178.7,78.1c-15.9,0-28.9,12.9-28.9,28.9c0,15.9,12.9,28.9,28.9,28.9s28.9-12.9,28.9-28.9C207.6,91.1,194.6,78.1,178.7,78.1z"/>
		</g>
		<g>
			<circle class="st0" cx="299.7" cy="179.3" r="29.6"/>
			<path class="st0" d="M299.7,209.6c-16.7,0-30.3-13.6-30.3-30.3S283,149,299.7,149s30.3,13.6,30.3,30.3S316.5,209.6,299.7,209.6z
				 M299.7,150.4c-15.9,0-28.9,12.9-28.9,28.9s12.9,28.9,28.9,28.9c15.9,0,28.9-12.9,28.9-28.9S315.7,150.4,299.7,150.4z"/>
		</g>
		<g>
			
				<rect x="175.4" y="-32.1" transform="matrix(0.5154 -0.8569 0.8569 0.5154 -4.7132 206.4693)" class="st0" width="9.6" height="279"/>
			<path class="st0" d="M297.5,184.4l-0.6-0.4L57.2,39.9l5.7-9.5l0.6,0.4l239.7,144.2L297.5,184.4z M59.2,39.4l237.8,143l4.2-7
				L63.4,32.4L59.2,39.4z"/>
		</g>
	</g>
	<rect x="19.4" y="97" class="st1" width="85.8" height="257.8"/>
	<rect x="134.6" y="161.9" class="st1" width="85.8" height="192.9"/>
	<rect x="254.8" y="246.8" class="st1" width="85.8" height="108"/>
</g>
</svg>
