<?xml version="1.0" encoding="utf-8"?>
<!-- Generator: Adobe Illustrator 22.1.0, SVG Export Plug-In . SVG Version: 6.00 Build 0)  -->
<svg version="1.1" id="Layer_1" xmlns="http://www.w3.org/2000/svg" xmlns:xlink="http://www.w3.org/1999/xlink" x="0px" y="0px"
	 viewBox="0 0 512 512" style="enable-background:new 0 0 512 512;" xml:space="preserve">
<style type="text/css">
	.st0{fill:#FFFFFF;stroke:#000000;stroke-width:1.1211;stroke-miterlimit:10;}
</style>
<path class="st0" d="M493.3,441.6L310.1,258.4c-0.8-0.8-1.7-1.6-2.6-2.4c15.5-24.6,24.4-53.8,24.4-85C331.9,82.6,260.2,11,171.8,11
	S11.7,82.6,11.7,171.1c0,88.4,71.7,160.1,160.1,160.1c32.1,0,62-9.5,87.1-25.7c0.6,0.8,1.3,1.5,2,2.2l183.2,183.2
	c13.5,13.5,35.7,13.5,49.2,0l0,0C506.9,477.3,506.9,455.2,493.3,441.6z M171.8,294.2c-68,0-123.2-55.1-123.2-123.2
	S103.8,47.9,171.8,47.9S295,103,295,171.1S239.8,294.2,171.8,294.2z"/>
</svg>
