<?xml version="1.0" encoding="utf-8"?>
<!-- Generator: Adobe Illustrator 22.1.0, SVG Export Plug-In . SVG Version: 6.00 Build 0)  -->
<svg version="1.1" id="Layer_1" xmlns="http://www.w3.org/2000/svg" xmlns:xlink="http://www.w3.org/1999/xlink" x="0px" y="0px"
	 viewBox="0 0 512 512" style="enable-background:new 0 0 512 512;" xml:space="preserve">
<style type="text/css">
	.st0{fill:#FFFFFF;stroke:#000000;stroke-width:1.6303;stroke-miterlimit:10;}
</style>
<path class="st0" d="M464,431L328.4,295.3c20.3-26.6,32.3-59.8,32.3-95.8c0-87.4-70.8-158.2-158.2-158.2S44.3,112.1,44.3,199.5
	s70.8,158.2,158.2,158.2c34.7,0,66.9-11.2,93-30.2l136,136c8.9,8.9,23.6,8.9,32.5,0C473,454.6,473,440,464,431z M89.5,199.5
	c0-62.4,50.6-113,113-113s113,50.6,113,113s-50.6,113-113,113S89.5,261.9,89.5,199.5z"/>
</svg>
